<svg xmlns="http://www.w3.org/2000/svg" xmlns:xlink="http://www.w3.org/1999/xlink" width="1000" zoomAndPan="magnify" viewBox="0 0 750 749.999995" height="1000" preserveAspectRatio="xMidYMid meet" version="1.0"><defs><g/></defs><g fill="#ffffff" fill-opacity="1"><g transform="translate(2.727699, 461.631242)"><g><path d="M 154.453125 -84.125 C 154.453125 -57.1875 147.035156 -36.429688 132.203125 -21.859375 C 117.367188 -7.285156 96.519531 0 69.65625 0 L 17.4375 0 L 17.4375 -161.40625 L 73.296875 -161.40625 C 99.203125 -161.40625 119.203125 -154.78125 133.296875 -141.53125 C 147.398438 -128.28125 154.453125 -109.144531 154.453125 -84.125 Z M 109.1875 -82.578125 C 109.1875 -97.367188 106.257812 -108.332031 100.40625 -115.46875 C 94.550781 -122.613281 85.664062 -126.1875 73.75 -126.1875 L 61.046875 -126.1875 L 61.046875 -35.765625 L 70.765625 -35.765625 C 84.015625 -35.765625 93.726562 -39.609375 99.90625 -47.296875 C 106.09375 -54.992188 109.1875 -66.753906 109.1875 -82.578125 Z M 109.1875 -82.578125 "/></g></g></g><g fill="#ffffff" fill-opacity="1"><g transform="translate(168.646401, 461.631242)"><g><path d="M 96.484375 0 L 88.203125 -16.5625 L 87.328125 -16.5625 C 81.515625 -9.34375 75.585938 -4.410156 69.546875 -1.765625 C 63.515625 0.878906 55.710938 2.203125 46.140625 2.203125 C 34.367188 2.203125 25.097656 -1.328125 18.328125 -8.390625 C 11.554688 -15.453125 8.171875 -25.390625 8.171875 -38.203125 C 8.171875 -51.515625 12.804688 -61.425781 22.078125 -67.9375 C 31.347656 -74.457031 44.78125 -78.125 62.375 -78.9375 L 83.234375 -79.59375 L 83.234375 -81.359375 C 83.234375 -91.660156 78.15625 -96.8125 68 -96.8125 C 58.875 -96.8125 47.285156 -93.722656 33.234375 -87.546875 L 20.75 -116.03125 C 35.320312 -123.53125 53.722656 -127.28125 75.953125 -127.28125 C 91.992188 -127.28125 104.410156 -123.304688 113.203125 -115.359375 C 122.003906 -107.410156 126.40625 -96.300781 126.40625 -82.03125 L 126.40625 0 Z M 64.46875 -28.265625 C 69.695312 -28.265625 74.164062 -29.921875 77.875 -33.234375 C 81.59375 -36.546875 83.453125 -40.847656 83.453125 -46.140625 L 83.453125 -55.859375 L 73.53125 -55.421875 C 59.320312 -54.898438 52.21875 -49.675781 52.21875 -39.75 C 52.21875 -32.09375 56.300781 -28.265625 64.46875 -28.265625 Z M 64.46875 -28.265625 "/></g></g></g><g fill="#ffffff" fill-opacity="1"><g transform="translate(309.506168, 461.631242)"><g><path d="M 93.84375 0 L 93.84375 -68.21875 C 93.84375 -76.539062 92.644531 -82.816406 90.25 -87.046875 C 87.851562 -91.273438 84.007812 -93.390625 78.71875 -93.390625 C 71.425781 -93.390625 66.160156 -90.484375 62.921875 -84.671875 C 59.679688 -78.859375 58.0625 -68.882812 58.0625 -54.75 L 58.0625 0 L 14.90625 0 L 14.90625 -125.078125 L 47.46875 -125.078125 L 52.875 -109.625 L 55.421875 -109.625 C 59.097656 -115.507812 64.191406 -119.921875 70.703125 -122.859375 C 77.222656 -125.804688 84.710938 -127.28125 93.171875 -127.28125 C 107.015625 -127.28125 117.78125 -123.269531 125.46875 -115.25 C 133.15625 -107.226562 137 -95.929688 137 -81.359375 L 137 0 Z M 93.84375 0 "/></g></g></g><g fill="#ffffff" fill-opacity="1"><g transform="translate(460.963532, 461.631242)"><g><path d="M 58.296875 0 L 15.125 0 L 15.125 -125.078125 L 58.296875 -125.078125 Z M 14.015625 -156.21875 C 14.015625 -162.6875 15.816406 -167.503906 19.421875 -170.671875 C 23.035156 -173.835938 28.851562 -175.421875 36.875 -175.421875 C 44.894531 -175.421875 50.742188 -173.800781 54.421875 -170.5625 C 58.109375 -167.320312 59.953125 -162.539062 59.953125 -156.21875 C 59.953125 -143.550781 52.257812 -137.21875 36.875 -137.21875 C 21.632812 -137.21875 14.015625 -143.550781 14.015625 -156.21875 Z M 14.015625 -156.21875 "/></g></g></g><g fill="#ffffff" fill-opacity="1"><g transform="translate(534.484382, 461.631242)"><g><path d="M 75.296875 2.203125 C 54.460938 2.203125 38.285156 -3.332031 26.765625 -14.40625 C 15.253906 -25.476562 9.5 -41.25 9.5 -61.71875 C 9.5 -82.832031 14.832031 -99.035156 25.5 -110.328125 C 36.175781 -121.628906 51.410156 -127.28125 71.203125 -127.28125 C 90.046875 -127.28125 104.597656 -122.367188 114.859375 -112.546875 C 125.128906 -102.722656 130.265625 -88.578125 130.265625 -70.109375 L 130.265625 -50.890625 L 53.09375 -50.890625 C 53.394531 -43.898438 55.953125 -38.414062 60.765625 -34.4375 C 65.585938 -30.46875 72.160156 -28.484375 80.484375 -28.484375 C 88.054688 -28.484375 95.023438 -29.195312 101.390625 -30.625 C 107.765625 -32.0625 114.664062 -34.515625 122.09375 -37.984375 L 122.09375 -6.953125 C 115.320312 -3.492188 108.332031 -1.101562 101.125 0.21875 C 93.914062 1.539062 85.304688 2.203125 75.296875 2.203125 Z M 72.75 -97.921875 C 67.675781 -97.921875 63.425781 -96.316406 60 -93.109375 C 56.582031 -89.910156 54.578125 -84.890625 53.984375 -78.046875 L 91.078125 -78.046875 C 90.929688 -84.085938 89.21875 -88.910156 85.9375 -92.515625 C 82.664062 -96.117188 78.269531 -97.921875 72.75 -97.921875 Z M 72.75 -97.921875 "/></g></g></g><g fill="#ffffff" fill-opacity="1"><g transform="translate(674.240232, 461.631242)"><g><path d="M 58.0625 0 L 14.90625 0 L 14.90625 -171.78125 L 58.0625 -171.78125 Z M 58.0625 0 "/></g></g></g></svg>