<svg xmlns="http://www.w3.org/2000/svg" xmlns:xlink="http://www.w3.org/1999/xlink" width="500" zoomAndPan="magnify" viewBox="0 0 375 374.999991" height="500" preserveAspectRatio="xMidYMid meet" version="1.0"><defs><g/></defs><g fill="#ffd700" fill-opacity="1"><g transform="translate(154.455184, 222.270786)"><g><path d="M 56.875 -30.984375 C 56.875 -21.054688 54.144531 -13.410156 48.6875 -8.046875 C 43.226562 -2.679688 35.550781 0 25.65625 0 L 6.421875 0 L 6.421875 -59.4375 L 27 -59.4375 C 36.539062 -59.4375 43.90625 -56.992188 49.09375 -52.109375 C 54.28125 -47.234375 56.875 -40.191406 56.875 -30.984375 Z M 40.203125 -30.40625 C 40.203125 -35.851562 39.125 -39.890625 36.96875 -42.515625 C 34.820312 -45.148438 31.550781 -46.46875 27.15625 -46.46875 L 22.484375 -46.46875 L 22.484375 -13.171875 L 26.0625 -13.171875 C 30.9375 -13.171875 34.507812 -14.585938 36.78125 -17.421875 C 39.0625 -20.253906 40.203125 -24.582031 40.203125 -30.40625 Z M 40.203125 -30.40625 "/></g></g></g><g fill="#004d80" fill-opacity="1"><g transform="translate(159.427962, 216.540186)"><g><path d="M 56.875 -30.984375 C 56.875 -21.054688 54.144531 -13.410156 48.6875 -8.046875 C 43.226562 -2.679688 35.550781 0 25.65625 0 L 6.421875 0 L 6.421875 -59.4375 L 27 -59.4375 C 36.539062 -59.4375 43.90625 -56.992188 49.09375 -52.109375 C 54.28125 -47.234375 56.875 -40.191406 56.875 -30.984375 Z M 40.203125 -30.40625 C 40.203125 -35.851562 39.125 -39.890625 36.96875 -42.515625 C 34.820312 -45.148438 31.550781 -46.46875 27.15625 -46.46875 L 22.484375 -46.46875 L 22.484375 -13.171875 L 26.0625 -13.171875 C 30.9375 -13.171875 34.507812 -14.585938 36.78125 -17.421875 C 39.0625 -20.253906 40.203125 -24.582031 40.203125 -30.40625 Z M 40.203125 -30.40625 "/></g></g></g><g fill="#ffffff" fill-opacity="1"><g transform="translate(153.769595, 255.059016)"><g><path d="M 15.03125 -8.1875 C 15.03125 -5.5625 14.304688 -3.539062 12.859375 -2.125 C 11.421875 -0.707031 9.394531 0 6.78125 0 L 1.703125 0 L 1.703125 -15.703125 L 7.140625 -15.703125 C 9.660156 -15.703125 11.601562 -15.054688 12.96875 -13.765625 C 14.34375 -12.484375 15.03125 -10.625 15.03125 -8.1875 Z M 10.625 -8.03125 C 10.625 -9.46875 10.335938 -10.535156 9.765625 -11.234375 C 9.203125 -11.929688 8.335938 -12.28125 7.171875 -12.28125 L 5.9375 -12.28125 L 5.9375 -3.484375 L 6.890625 -3.484375 C 8.171875 -3.484375 9.113281 -3.851562 9.71875 -4.59375 C 10.320312 -5.34375 10.625 -6.488281 10.625 -8.03125 Z M 10.625 -8.03125 "/></g></g></g><g fill="#ffffff" fill-opacity="1"><g transform="translate(169.91224, 255.059016)"><g><path d="M 9.390625 0 L 8.578125 -1.609375 L 8.5 -1.609375 C 7.9375 -0.910156 7.359375 -0.429688 6.765625 -0.171875 C 6.179688 0.0859375 5.421875 0.21875 4.484375 0.21875 C 3.335938 0.21875 2.4375 -0.125 1.78125 -0.8125 C 1.125 -1.5 0.796875 -2.46875 0.796875 -3.71875 C 0.796875 -5.007812 1.242188 -5.972656 2.140625 -6.609375 C 3.046875 -7.242188 4.351562 -7.601562 6.0625 -7.6875 L 8.09375 -7.75 L 8.09375 -7.921875 C 8.09375 -8.921875 7.601562 -9.421875 6.625 -9.421875 C 5.726562 -9.421875 4.597656 -9.117188 3.234375 -8.515625 L 2.015625 -11.296875 C 3.429688 -12.023438 5.222656 -12.390625 7.390625 -12.390625 C 8.953125 -12.390625 10.160156 -12 11.015625 -11.21875 C 11.867188 -10.445312 12.296875 -9.367188 12.296875 -7.984375 L 12.296875 0 Z M 6.28125 -2.75 C 6.78125 -2.75 7.210938 -2.910156 7.578125 -3.234375 C 7.941406 -3.554688 8.125 -3.972656 8.125 -4.484375 L 8.125 -5.4375 L 7.15625 -5.390625 C 5.769531 -5.335938 5.078125 -4.832031 5.078125 -3.875 C 5.078125 -3.125 5.476562 -2.75 6.28125 -2.75 Z M 6.28125 -2.75 "/></g></g></g><g fill="#ffffff" fill-opacity="1"><g transform="translate(183.616837, 255.059016)"><g><path d="M 9.125 0 L 9.125 -6.640625 C 9.125 -7.453125 9.007812 -8.0625 8.78125 -8.46875 C 8.550781 -8.882812 8.175781 -9.09375 7.65625 -9.09375 C 6.945312 -9.09375 6.4375 -8.804688 6.125 -8.234375 C 5.8125 -7.671875 5.65625 -6.703125 5.65625 -5.328125 L 5.65625 0 L 1.453125 0 L 1.453125 -12.171875 L 4.625 -12.171875 L 5.140625 -10.671875 L 5.390625 -10.671875 C 5.753906 -11.242188 6.25 -11.671875 6.875 -11.953125 C 7.507812 -12.242188 8.238281 -12.390625 9.0625 -12.390625 C 10.414062 -12.390625 11.460938 -12 12.203125 -11.21875 C 12.953125 -10.4375 13.328125 -9.335938 13.328125 -7.921875 L 13.328125 0 Z M 9.125 0 "/></g></g></g><g fill="#ffffff" fill-opacity="1"><g transform="translate(198.3525, 255.059016)"><g><path d="M 5.671875 0 L 1.46875 0 L 1.46875 -12.171875 L 5.671875 -12.171875 Z M 1.359375 -15.203125 C 1.359375 -15.828125 1.535156 -16.289062 1.890625 -16.59375 C 2.242188 -16.90625 2.8125 -17.0625 3.59375 -17.0625 C 4.375 -17.0625 4.941406 -16.90625 5.296875 -16.59375 C 5.648438 -16.28125 5.828125 -15.816406 5.828125 -15.203125 C 5.828125 -13.972656 5.082031 -13.359375 3.59375 -13.359375 C 2.101562 -13.359375 1.359375 -13.972656 1.359375 -15.203125 Z M 1.359375 -15.203125 "/></g></g></g><g fill="#ffffff" fill-opacity="1"><g transform="translate(205.505526, 255.059016)"><g><path d="M 7.328125 0.21875 C 5.296875 0.21875 3.71875 -0.316406 2.59375 -1.390625 C 1.476562 -2.472656 0.921875 -4.007812 0.921875 -6 C 0.921875 -8.0625 1.441406 -9.640625 2.484375 -10.734375 C 3.523438 -11.835938 5.003906 -12.390625 6.921875 -12.390625 C 8.753906 -12.390625 10.171875 -11.910156 11.171875 -10.953125 C 12.171875 -9.992188 12.671875 -8.617188 12.671875 -6.828125 L 12.671875 -4.953125 L 5.171875 -4.953125 C 5.191406 -4.273438 5.4375 -3.738281 5.90625 -3.34375 C 6.382812 -2.957031 7.023438 -2.765625 7.828125 -2.765625 C 8.566406 -2.765625 9.242188 -2.832031 9.859375 -2.96875 C 10.484375 -3.113281 11.15625 -3.359375 11.875 -3.703125 L 11.875 -0.671875 C 11.21875 -0.335938 10.535156 -0.109375 9.828125 0.015625 C 9.128906 0.148438 8.296875 0.21875 7.328125 0.21875 Z M 7.078125 -9.53125 C 6.585938 -9.53125 6.175781 -9.375 5.84375 -9.0625 C 5.507812 -8.75 5.3125 -8.257812 5.25 -7.59375 L 8.859375 -7.59375 C 8.847656 -8.175781 8.679688 -8.644531 8.359375 -9 C 8.046875 -9.351562 7.617188 -9.53125 7.078125 -9.53125 Z M 7.078125 -9.53125 "/></g></g></g><g fill="#ffffff" fill-opacity="1"><g transform="translate(219.10272, 255.059016)"><g><path d="M 5.65625 0 L 1.453125 0 L 1.453125 -16.71875 L 5.65625 -16.71875 Z M 5.65625 0 "/></g></g></g></svg>